<?xml version="1.0" encoding="UTF-8"?>
<svg id="Layer_1" xmlns="http://www.w3.org/2000/svg" version="1.1" viewBox="0 0 64 64">
  <!-- Generator: Adobe Illustrator 29.3.1, SVG Export Plug-In . SVG Version: 2.1.0 Build 151)  -->
  <defs>
    <style>
      .st0 {
        fill: #10893a;
      }

      .st1 {
        fill: #fefefe;
      }
    </style>
  </defs>
  <polyline class="st0" points="0 0 64 0 64 64 0 64"/>
  <g>
    <g>
      <path class="st1" d="M58.3,48.9h-6.5l6.6,6.9c-.4.3-2.4,2.6-2.6,2.5l-6.7-6.5v6.4l-.4-.2c-.3-.5-3.4-3.1-3.4-3.4v-9.4h9.5c.3,0,3.1,3.2,3.6,3.6Z"/>
      <path class="st1" d="M18.9,45.1v9.5c0,.3-3.2,3.1-3.6,3.6v-6.5l-6.8,6.6c-.3-.5-2.5-2.3-2.6-2.6s0-.2.1-.2l6.5-6.6h-6.5l.2-.4c.5-.3,3.1-3.4,3.4-3.4h9.4Z"/>
      <g>
        <path class="st1" d="M38.8,46.7h-3.6v-5.4c0-.3-.7-.3-.7,0v5.4h-4.9c-.3,0,0-.6,0-.8,0-1.1.2-3.5,0-4.5s-.6-.5-.6-.2v5.5h-3.7v-8.9c0-1.3,1.4-2.8,2.7-3.2s5.6-.3,7.2-.2,3.8,1.4,3.8,3.3v8.9Z"/>
        <path class="st1" d="M16.7,33.3c.2-1.3,1.6-2.8,2.9-3s5.9-.2,7.4,0,1.1.2,1.1.3,0,.5.1.7c.2.6.6,1.2,1,1.7s.8.4,1,.7,0,.2,0,.4h-1.8c-1.9,0-4.1,2.1-4.1,4.1v4.5h-3.6v-5.5c0-.2-.5-.2-.5,0v5.5h-3.7v-9.1Z"/>
        <path class="st1" d="M47.2,42.5h-3.6v-5.5c0-.2-.6-.2-.6,0v5.5h-3.6v-5.3c0-1-1.7-2.7-2.7-3s-3-.1-3.1-.3c-.2-.4.5-.5.8-.7.5-.3,1.1-1,1.3-1.6.4-1,0-1.2,1.4-1.3s4.9-.1,6.7,0,3.4,1.6,3.5,3.5.2,6,0,8.1,0,.4-.1.7Z"/>
        <circle class="st1" cx="23.5" cy="25.8" r="3.4"/>
        <circle class="st1" cx="40.4" cy="25.8" r="3.4"/>
        <circle class="st1" cx="32" cy="21.8" r="3.4"/>
        <circle class="st1" cx="32" cy="30.1" r="3.3"/>
      </g>
    </g>
    <g>
      <path class="st1" d="M51.8,15.1h6.5c0,.2,0,.2-.2.4-.5.6-2.5,2.6-3.1,3.1s-.4.3-.4.3h-9.1s-.2-.2-.2-.2v-9.3c0-.3,3.2-3.1,3.6-3.6v6.5l6.8-6.6c.3.5,2.5,2.3,2.6,2.6s0,.2-.1.2l-6.5,6.6Z"/>
      <path class="st1" d="M15.2,12.4v-6.5l.4.2c.3.5,3.4,3.1,3.4,3.4v9.4h-9.5c-.3,0-3.1-3.2-3.6-3.6h6.5l-6.6-6.8c.5-.3,2.3-2.5,2.6-2.6s.2,0,.2.1l6.6,6.5Z"/>
    </g>
  </g>
</svg>